HIERARCHY
ROOT root
{
	OFFSET	0	13.1	24.9
	CHANNELS 6  Xposition Yposition Zposition Xrotation Yrotation Zrotation
	JOINT spine_1
	{
		OFFSET	0	9.99999	0
		CHANNELS 3  Xrotation Yrotation Zrotation
		JOINT spine_2
		{
			OFFSET	0	112	-10
			CHANNELS 3  Xrotation Yrotation Zrotation
			JOINT spine_3
			{
				OFFSET	0	206.5	19.3
				CHANNELS 3  Xrotation Yrotation Zrotation
				JOINT spine_4
				{
					OFFSET	0	110.4	14.6
					CHANNELS 3  Xrotation Yrotation Zrotation
					JOINT neck_1
					{
						OFFSET	0	71.8	-50.3
						CHANNELS 3  Xrotation Yrotation Zrotation
						JOINT neck_2
						{
							OFFSET	0	86.2	-25.8
							CHANNELS 3  Xrotation Yrotation Zrotation
							JOINT head_ee
							{
								OFFSET	0	179.8	-8.7
								CHANNELS 3  Xrotation Yrotation Zrotation
								End Site
								{
									OFFSET	1	0	0
								}
							}
						}
					}
					JOINT left_clavicle
					{
						OFFSET	-43.2	22.4	-70.8
						CHANNELS 3  Xrotation Yrotation Zrotation
						JOINT left_shoulder
						{
							OFFSET	-93.9	-5.79999	48.7
							CHANNELS 3  Xrotation Yrotation Zrotation
							JOINT left_elbow
							{
								OFFSET	-291.4	-30.8	15.2
								CHANNELS 3  Xrotation Yrotation Zrotation
								JOINT left_lowarm_twist
								{
									OFFSET	-110.7	-3.89999	13.6
									CHANNELS 3  Xrotation Yrotation Zrotation
									JOINT left_hand
									{
										OFFSET	-110.7	-3.89999	13.6
										CHANNELS 3  Xrotation Yrotation Zrotation
										JOINT left_ee
										{
											OFFSET	-80.8	-5.10001	12.1
											CHANNELS 3  Xrotation Yrotation Zrotation
											End Site
											{
												OFFSET	1	0	0
											}
										}
									}
								}
							}
						}
					}
					JOINT right_clavicle
					{
						OFFSET	43.2	22.4	-70.8
						CHANNELS 3  Xrotation Yrotation Zrotation
						JOINT right_shoulder
						{
							OFFSET	93.9	-5.79999	48.7
							CHANNELS 3  Xrotation Yrotation Zrotation
							JOINT right_elbow
							{
								OFFSET	291.4	-30.8	15.2
								CHANNELS 3  Xrotation Yrotation Zrotation
								JOINT right_lowarm_twist
								{
									OFFSET	110.7	-3.89999	13.6
									CHANNELS 3  Xrotation Yrotation Zrotation
									JOINT right_hand
									{
										OFFSET	110.7	-3.89999	13.6
										CHANNELS 3  Xrotation Yrotation Zrotation
										JOINT right_ee
										{
											OFFSET	80.8	-5.10001	12.1
											CHANNELS 3  Xrotation Yrotation Zrotation
											End Site
											{
												OFFSET	1	0	0
											}
										}
									}
								}
							}
						}
					}
				}
			}
		}
	}
	JOINT left_hip
	{
		OFFSET	-82.8	-127.5	0.300001
		CHANNELS 3  Xrotation Yrotation Zrotation
		JOINT left_knee
		{
			OFFSET	-28.2	-396.7	2.2
			CHANNELS 3  Xrotation Yrotation Zrotation
			JOINT left_ankle
			{
				OFFSET	-11.7	-411.3	35.4
				CHANNELS 3  Xrotation Yrotation Zrotation
				JOINT left_toes
				{
					OFFSET	0	-60	-88.6
					CHANNELS 3  Xrotation Yrotation Zrotation
					JOINT left_foot_ee
					{
						OFFSET	-22.5	-16.5	-42.2
						CHANNELS 3  Xrotation Yrotation Zrotation
						End Site
						{
							OFFSET	1	0	0
						}
					}
				}
			}
		}
	}
	JOINT right_hip
	{
		OFFSET	82.8	-127.5	0.300001
		CHANNELS 3  Xrotation Yrotation Zrotation
		JOINT right_knee
		{
			OFFSET	28.2	-396.7	2.2
			CHANNELS 3  Xrotation Yrotation Zrotation
			JOINT right_ankle
			{
				OFFSET	11.7	-411.3	35.4
				CHANNELS 3  Xrotation Yrotation Zrotation
				JOINT right_toes
				{
					OFFSET	0	-60	-88.6
					CHANNELS 3  Xrotation Yrotation Zrotation
					JOINT right_foot_ee
					{
						OFFSET	22.5	-16.5	-42.2
						CHANNELS 3  Xrotation Yrotation Zrotation
						End Site
						{
							OFFSET	1	0	0
						}
					}
				}
			}
		}
	}
}
MOTION
Frames: 14
Frame Time: 0.02
683.529 667.135 -599.525 168.077 -63.5541 169.999 -2.17399 1.20745 2.14124 -2.17207 1.06878 2.21369 -2.12688 0.4912 2.40853 -2.13394 0.865318 2.30082 -20.6195 11.3231 0.444443 -21.3618 21.6071 5.4508 -0.0 0.0 -0.0 2.48014 11.2597 5.53502 -23.5195 1.39777 72.2536 0.441527 -12.3376 0.0477223 -59.3719 -5.20474 5.0812 -7.65654 12.768 -49.607 -0.0 0.0 -0.0 5.82923 29.6657 -9.2731 26.7668 8.6195 -71.3015 1.11205 28.8486 -0.286037 40.268 0.363274 5.02674 6.44275 -17.4906 -55.9156 0.0 0.0 0.0 36.2081 25.4911 -18.2788 -15.1752 0.321896 2.29976 2.76664 11.3055 -0.402614 -39.4578 0.0 0.0 -0.0 0.0 -0.0 -15.1832 34.2084 1.38392 -31.9997 0.0377081 -4.8474 36.3737 31.7182 5.66961 -13.3738 0.0 0.0 0.0 0.0 0.0 
707.734 665.977 -604.657 170.107 -63.7397 171.419 -1.87623 1.10513 2.22607 -1.87399 0.961282 2.29184 -1.83173 0.38034 2.45592 -1.83934 0.763326 2.36512 -18.9821 11.0233 0.83996 -19.5766 20.7852 5.33517 -0.0 0.0 -0.0 2.18661 12.0285 5.08608 -22.5628 1.39608 72.2308 0.459183 -12.815 0.0515667 -60.893 -5.39401 5.12811 -7.57358 12.8559 -48.6664 -0.0 0.0 -0.0 5.82828 31.0598 -9.1108 25.199 8.90732 -71.0552 1.10389 28.6706 -0.282111 40.2916 0.364516 5.02949 6.23378 -16.6781 -53.3293 0.0 0.0 0.0 34.7535 25.4587 -16.5481 -14.9107 0.321533 2.25918 1.87295 8.3259 -0.272823 -39.322 0.0 0.0 -0.0 0.0 -0.0 -15.9976 33.9232 2.24392 -31.683 0.0240698 -4.80073 33.0476 28.6722 5.09268 -14.0217 0.0 0.0 0.0 0.0 0.0 
739.044 667.42 -609.535 170.471 -64.1621 171.768 -1.67596 1.03575 2.18117 -1.67376 0.894895 2.24262 -1.6353 0.335921 2.39102 -1.64257 0.709223 2.30804 -18.5806 10.7016 0.436913 -19.132 20.3641 4.74398 -0.0 0.0 -0.0 2.13664 12.7007 5.04558 -22.285 0.247841 71.6446 0.483689 -13.4746 0.0571398 -61.7216 -5.49761 5.15154 -7.56648 12.7131 -48.7493 -0.0 0.0 -0.0 5.94141 31.3695 -9.32021 23.0247 8.97906 -70.3423 1.03546 27.1544 -0.250076 39.9216 0.345191 4.9863 6.09986 -16.6417 -51.8596 0.0 0.0 0.0 33.9461 25.0562 -15.8141 -17.5497 0.316758 2.66402 0.389085 7.67411 -0.0568908 -39.243 0.0 0.0 -0.0 0.0 -0.0 -18.7824 34.4956 3.77732 -30.3618 -0.0300384 -4.60519 33.0209 29.6603 5.15076 -14.8287 0.0 0.0 0.0 0.0 0.0 
767.981 672.725 -614.938 170.167 -65.432 171.471 -1.54031 0.865881 2.14128 -1.53805 0.727904 2.19201 -1.50714 0.190764 2.30176 -1.51411 0.551799 2.2428 -17.2343 9.52553 -0.0583725 -17.6234 18.3309 3.54961 -0.0 0.0 -0.0 1.9842 13.1357 4.82147 -22.0212 -1.34358 71.172 0.529778 -14.7051 0.0683606 -64.8231 -5.88794 5.22584 -7.29096 12.1716 -46.5971 -0.0 0.0 -0.0 4.96688 31.0857 -7.23824 20.4667 10.8347 -70.8205 1.03044 27.0415 -0.247789 39.2876 0.31273 4.912 5.56131 -17.8676 -46.7162 0.0 0.0 0.0 32.953 24.8982 -15.0808 -20.767 0.285732 3.15663 7.89064 3.23621 -1.13346 -39.3066 0.0 0.0 -0.0 0.0 -0.0 -19.9365 33.8827 4.13948 -26.6911 -0.156515 -4.05615 26.4058 28.442 4.25542 -12.9069 0.0 0.0 0.0 0.0 0.0 
803.396 677.989 -614.745 171.983 -65.6531 173.23 -1.39629 0.886716 2.09957 -1.39415 0.75135 2.15171 -1.36306 0.228773 2.26755 -1.36976 0.583932 2.20302 -14.7271 9.43711 0.303586 -15.0013 17.8571 3.43053 -0.0 0.0 -0.0 1.76146 13.2801 4.46418 -21.7103 -2.2168 70.5359 0.64164 -17.6329 0.099521 -66.4936 -6.09958 5.25703 -7.10596 11.6701 -45.3296 -0.0 0.0 -0.0 6.52507 30.5488 -10.6867 16.0622 12.1821 -69.1448 0.991161 26.1502 -0.230201 39.2295 0.309796 4.90517 5.11474 -16.9675 -42.4814 0.0 0.0 0.0 32.4222 25.2924 -15.0975 -23.1809 0.24432 3.5247 11.4036 3.85069 -1.61671 -39.9737 0.0 0.0 -0.0 0.0 -0.0 -21.1487 33.8994 3.67665 -23.1477 -0.244994 -3.51965 23.0952 23.8105 3.60877 -14.1332 0.0 0.0 0.0 0.0 0.0 
836.556 681.013 -617.923 172.284 -68.1058 173.863 -1.06057 0.629594 1.93363 -1.05863 0.505301 1.96975 -1.03921 0.043279 2.03305 -1.04479 0.363753 2.00072 -11.5789 9.03397 -0.460653 -11.7293 17.4076 2.07152 -0.0 0.0 -0.0 0.3769 13.4069 2.19979 -20.3884 -3.89398 71.5893 0.751915 -20.4291 0.13549 -71.4915 -6.7365 5.31315 -6.75424 9.69859 -43.8853 -0.0 0.0 -0.0 7.25629 29.8804 -12.3616 11.3798 13.7494 -67.7689 0.982618 25.9545 -0.226449 38.0614 0.252291 4.76731 4.3391 -17.3967 -36.1852 0.0 0.0 0.0 31.59 27.0886 -13.3972 -24.8057 0.207727 3.77135 16.45 6.24192 -2.28179 -39.6615 0.0 0.0 -0.0 0.0 -0.0 -21.0415 34.4621 1.77756 -25.0344 -0.202015 -3.80598 19.1526 21.3531 2.98699 -12.522 0.0 0.0 0.0 0.0 0.0 
865.262 677.502 -620.054 172.403 -67.4995 174.513 -0.952808 0.754104 1.84841 -0.951131 0.634978 1.89263 -0.928216 0.19105 1.98711 -0.933374 0.50242 1.93203 -9.30674 7.9169 -1.43648 -9.35874 15.847 0.491598 -0.0 0.0 -0.0 0.14771 13.31 1.81279 -18.2781 -5.18886 71.6562 0.816076 -22.0114 0.158716 -73.7197 -7.02127 5.32012 -6.49986 8.51416 -42.5908 -0.0 0.0 -0.0 7.87421 29.4975 -13.7606 7.88363 14.6832 -66.8479 0.977219 25.8305 -0.224091 37.1802 0.210779 4.66256 3.74607 -17.7639 -31.7784 0.0 0.0 0.0 30.9181 26.6111 -13.2401 -27.7272 0.124387 4.21191 20.894 5.3718 -2.84212 -39.6823 0.0 0.0 -0.0 0.0 -0.0 -20.6477 34.6402 1.1624 -26.9114 -0.14992 -4.08931 18.4138 19.4988 2.83469 -11.1574 0.0 0.0 0.0 0.0 0.0 
891.894 676.978 -624.357 172.451 -68.8657 174.208 -0.959113 0.675274 1.75936 -0.957566 0.561972 1.79875 -0.938195 0.140766 1.8792 -0.942858 0.435735 1.83341 -8.736 8.00268 -1.14869 -8.77433 15.7854 0.715386 -0.0 0.0 -0.0 -0.414718 13.0843 0.859724 -17.1056 -6.5836 71.762 0.879809 -23.5488 0.183395 -76.0397 -7.31764 5.31551 -6.39534 7.6104 -42.399 -0.0 0.0 -0.0 7.73352 29.314 -13.4734 4.39538 15.5281 -66.4111 0.970243 25.6699 -0.221061 36.4621 0.178149 4.57674 3.40087 -18.4894 -29.4615 0.0 0.0 0.0 28.787 26.9925 -11.5812 -27.931 0.117737 4.24247 25.0281 6.27242 -3.33403 -39.6301 0.0 0.0 -0.0 0.0 -0.0 -19.4636 34.9626 -0.305002 -28.7205 -0.0909427 -4.36068 16.0561 17.9842 2.469 -10.4107 0.0 0.0 0.0 0.0 0.0 
917.501 678.244 -629.763 169.539 -70.3536 170.949 -1.13314 0.526177 1.71912 -1.13159 0.415736 1.7491 -1.11727 0.00384623 1.79781 -1.12167 0.287684 1.77466 -8.54331 7.5807 -1.7783 -8.56737 15.4244 -0.0301368 -0.0 0.0 -0.0 -0.310128 12.5993 0.972332 -14.493 -11.9529 70.4783 0.940848 -24.9883 0.208485 -79.1609 -7.71529 5.29026 -5.83031 7.6957 -37.4343 -0.0 0.0 -0.0 7.16334 29.4883 -12.204 -0.0859428 15.3893 -66.0128 1.16432 29.974 -0.311704 36.2278 0.167736 4.54865 3.60578 -18.6426 -30.9664 0.0 0.0 0.0 24.5279 28.6635 -8.9647 -26.4495 0.1636 4.01975 30.0638 4.27256 -3.89691 -40.2132 0.0 0.0 -0.0 0.0 -0.0 -17.2801 35.2519 -2.0478 -32.8401 0.0751542 -4.97092 16.2387 14.8898 2.43611 -9.61767 0.0 0.0 0.0 0.0 0.0 
941.445 684.079 -633.494 166.458 -72.1066 167.691 -1.31618 0.239984 1.59668 -1.31477 0.13791 1.60871 -1.30966 -0.239885 1.5967 -1.31321 0.0152607 1.61454 -8.25071 5.79166 -0.864578 -8.26303 11.4296 0.431441 -0.0 0.0 -0.0 -0.594617 13.5412 0.622505 -11.584 -13.6071 69.7193 0.987401 -26.0641 0.228547 -81.1846 -7.97192 5.26222 -5.54537 5.48118 -36.6659 -0.0 0.0 -0.0 7.391 28.1112 -12.8591 -1.49058 15.6655 -65.5893 1.03028 27.0377 -0.247713 35.8889 0.152878 4.50795 3.0479 -18.6987 -27.0428 0.0 0.0 0.0 22.3434 27.8563 -7.12545 -28.9046 0.0844627 4.38818 32.6603 8.17227 -4.16914 -40.2298 0.0 0.0 -0.0 0.0 -0.0 -17.9467 35.3741 -1.39385 -30.7854 -0.0131842 -4.66801 16.3504 19.1364 2.53532 -8.30038 0.0 0.0 0.0 0.0 0.0 
962.977 687.375 -629.841 158.223 -74.9854 159.816 -1.59239 0.0299414 1.61165 -1.59095 -0.0726593 1.61029 -1.59187 -0.452752 1.54706 -1.59515 -0.202775 1.59913 -10.7177 5.25399 -0.410223 -10.7574 10.1898 0.974813 -0.0 0.0 -0.0 -0.993866 13.1299 -0.0899773 -7.66186 -16.8168 68.4267 1.06114 -27.7284 0.26191 -81.585 -8.02256 5.25559 -5.3076 5.77428 -34.5181 -0.0 0.0 -0.0 6.84695 28.1044 -11.6681 -3.99612 15.7782 -66.9252 1.00016 26.3555 -0.234181 37.425 0.22215 4.69173 3.03729 -17.4522 -26.6434 0.0 0.0 0.0 19.9053 29.1076 -6.65681 -28.9645 0.0823316 4.39714 32.4427 8.06852 -4.14656 -40.1103 0.0 0.0 -0.0 0.0 -0.0 -10.6482 32.1755 -7.27548 -41.7834 0.584109 -6.24612 18.6406 16.6614 2.80009 -7.92149 0.0 0.0 0.0 0.0 0.0 
986.23 692.334 -629.446 153.681 -76.3213 155.358 -1.68623 -0.21327 1.52149 -1.68499 -0.309643 1.50484 -1.69242 -0.660427 1.3872 -1.69485 -0.433083 1.47407 -10.8539 5.41272 -0.287651 -10.8973 10.4127 1.14774 -0.0 0.0 -0.0 -0.937642 13.1773 0.00942753 -4.94009 -18.8434 67.0222 1.09697 -28.5192 0.278799 -82.4243 -8.12851 5.24054 -5.22953 5.15365 -34.3075 -0.0 0.0 -0.0 7.18226 27.277 -12.4927 -6.91061 15.6855 -66.7177 0.97516 25.7831 -0.223195 35.8077 0.149352 4.49818 2.58459 -17.5913 -23.5885 0.0 0.0 0.0 17.5958 28.7821 -5.4258 -28.4953 0.0987521 4.327 35.325 10.2164 -4.4446 -39.284 0.0 0.0 -0.0 0.0 -0.0 -8.12207 30.3071 -7.96519 -45.7067 0.869144 -6.77795 20.4788 18.6586 3.09584 -7.52334 0.0 0.0 0.0 0.0 0.0 
1001.84 695.234 -633.005 153.141 -76.2248 155.055 -1.7675 -0.0837071 1.42409 -1.76639 -0.174147 1.41588 -1.76991 -0.50935 1.33253 -1.77227 -0.29253 1.39624 -11.6473 4.85033 0.22044 -11.6874 9.04297 1.5515 -0.0 0.0 -0.0 -1.05826 12.8807 -0.231727 -2.61999 -22.1355 66.4645 1.19062 -30.5308 0.324954 -83.8983 -8.31394 5.21031 -4.89919 4.56918 -32.0626 -0.0 0.0 -0.0 7.32326 27.1713 -12.8133 -9.52455 15.7612 -66.6684 0.92821 24.693 -0.203176 35.1888 0.122949 4.4236 2.42344 -17.1237 -22.3739 0.0 0.0 0.0 15.0097 24.7292 -3.79831 -27.7222 0.12455 4.21115 35.2874 11.5888 -4.45086 -40.0669 0.0 0.0 -0.0 0.0 -0.0 -4.09559 28.1824 -8.30002 -50.4625 1.26269 -7.39507 21.4909 19.54 3.25513 -7.34996 0.0 0.0 0.0 0.0 0.0 
1024.95 696.306 -634.032 157.285 -75.494 159.203 -1.40962 -0.14214 1.29993 -1.40871 -0.224563 1.28825 -1.41325 -0.520149 1.19979 -1.41511 -0.324153 1.26687 -11.4069 4.54505 0.202389 -11.4401 8.4684 1.43158 -0.0 0.0 -0.0 -1.10157 12.2561 -0.392952 -1.02575 -23.554 65.003 1.19547 -30.633 0.327426 -84.6231 -8.40478 5.19369 -4.68178 4.1772 -30.615 -0.0 0.0 -0.0 7.72468 27.0535 -13.7076 -12.2758 15.7944 -66.6336 0.848652 22.8016 -0.171133 34.5677 0.0972641 4.34848 2.30657 -17.1858 -21.6137 0.0 0.0 0.0 12.6086 27.9378 -3.58908 -25.7819 0.182383 3.91901 37.6238 11.3591 -4.67234 -39.4567 0.0 0.0 -0.0 0.0 -0.0 -1.02262 26.6751 -9.2146 -52.5212 1.44877 -7.65185 22.1177 20.1966 3.35752 -7.37689 0.0 0.0 0.0 0.0 0.0 
